<svg width="20" height="20" viewBox="0 0 20 20" fill="none" xmlns="http://www.w3.org/2000/svg">
<path d="M9.60931 0C4.3044 0 0 4.47841 0 10C0 15.5216 4.3044 20 9.60931 20C13.3963 20 16.7679 17.6789 18.3245 14.1414C18.5466 13.6377 17.9376 13.1812 17.5378 13.5471C16.3153 14.6672 14.8011 15.2971 13.1882 15.2971C9.52513 15.2971 6.55532 12.2065 6.55532 8.39456C6.55532 4.84073 9.16335 1.89563 12.5561 1.55662C13.0855 1.50365 13.1678 0.738948 12.6634 0.561725C11.625 0.196701 10.6237 0.000246654 9.60927 0.000246654L9.60931 0ZM9.60931 1.02668C9.81754 1.02668 10.0332 1.12106 10.2423 1.13936C7.48718 2.34035 5.56859 5.13132 5.56859 8.39447C5.56859 12.7738 8.97979 16.3246 13.188 16.3246C14.3004 16.3246 15.3342 15.9885 16.3189 15.506C14.7188 17.6316 12.3024 18.9731 9.60929 18.9731C4.84953 18.9731 0.987466 14.954 0.987466 9.99971C0.987466 5.04545 4.84953 1.02636 9.60929 1.02636L9.60931 1.02668ZM16.0728 2.68032C15.7294 2.68802 15.3796 2.89124 15.2399 3.28997L14.6994 4.86368L13.0955 4.99177C12.2821 5.05823 11.9591 6.12149 12.6023 6.64541L13.8665 7.67209L13.4963 9.30936C13.3056 10.1357 14.1922 10.779 14.8697 10.3052C15.0363 10.1877 15.8137 9.65224 16.2116 9.37391L17.5684 10.2407C18.2643 10.6847 19.1343 10.0144 18.9103 9.19765L18.4633 7.59216L19.6822 6.50096C20.3023 5.94909 19.958 4.89355 19.1417 4.86369L17.5221 4.79916L16.9206 3.24182C16.7651 2.84985 16.4152 2.6726 16.0728 2.68032ZM16.0876 3.88419L16.7354 5.48968C16.8095 5.67556 16.9899 5.80268 17.1833 5.8104L18.864 5.87493L17.5841 7.01428C17.437 7.14526 17.3768 7.35041 17.4295 7.54398L17.8923 9.24577L16.443 8.31446C16.2782 8.20948 16.0783 8.21815 15.9182 8.33083C15.7424 8.45315 14.878 9.07146 14.5143 9.32573L14.9159 7.60853C14.9604 7.41302 14.8826 7.20211 14.7309 7.07883L13.4037 6.00304L15.0853 5.85857C15.2778 5.84316 15.4509 5.71026 15.5175 5.52148L16.0876 3.88419Z" fill="#707070"/>
</svg>
