<svg width="20" height="20" viewBox="0 0 20 20" fill="none" xmlns="http://www.w3.org/2000/svg">
<path d="M9.99999 5.55554C7.54932 5.55554 5.55554 7.54932 5.55554 9.99999C5.55554 12.4507 7.54932 14.4444 9.99999 14.4444C12.4507 14.4444 14.4444 12.4507 14.4444 9.99999C14.4444 7.54932 12.4507 5.55554 9.99999 5.55554ZM9.99999 13.3333C8.16199 13.3333 6.66665 11.838 6.66665 9.99999C6.66665 8.16199 8.16199 6.66665 9.99999 6.66665C11.838 6.66665 13.3333 8.16199 13.3333 9.99999C13.3333 11.838 11.838 13.3333 9.99999 13.3333Z" fill="#707070"/>
<path d="M18.3333 7.77778H17.4533C17.3009 7.26489 17.0964 6.77067 16.842 6.30067L17.464 5.67867C18.1138 5.02889 18.1138 3.97133 17.4638 3.32178L16.6782 2.536C16.3636 2.22111 15.9449 2.04778 15.4998 2.04778C15.0547 2.04778 14.636 2.22111 14.3211 2.536L13.6991 3.15778C13.2296 2.90333 12.7351 2.69889 12.2222 2.54644V1.66667C12.2222 0.747556 11.4747 0 10.5556 0H9.44444C8.52533 0 7.77778 0.747556 7.77778 1.66667V2.54644C7.26467 2.69889 6.77044 2.90356 6.30089 3.15778L5.67889 2.53578C5.364 2.22089 4.94533 2.04778 4.50022 2.04778C4.05511 2.04778 3.63644 2.22111 3.32178 2.536L2.53622 3.32156C1.88622 3.97133 1.88622 5.02867 2.536 5.67844L3.158 6.30044C2.90356 6.77044 2.69911 7.26467 2.54667 7.77756H1.66667C0.747556 7.77778 0 8.52533 0 9.44444V10.5556C0 11.4747 0.747556 12.2222 1.66667 12.2222H2.54667C2.69911 12.7351 2.90356 13.2293 3.158 13.6993L2.536 14.3213C1.88622 14.9711 1.88622 16.0284 2.536 16.6782L3.32178 17.4638C3.63644 17.7787 4.05511 17.952 4.50022 17.952C4.94533 17.952 5.364 17.7787 5.67889 17.4638L6.30089 16.842C6.77044 17.0964 7.26489 17.3009 7.77778 17.4533V18.3333C7.77778 19.2524 8.52533 20 9.44444 20H10.5556C11.4747 20 12.2222 19.2524 12.2222 18.3333V17.4536C12.7353 17.3011 13.2296 17.0964 13.6991 16.8422L14.3211 17.4642C14.636 17.7791 15.0547 17.9522 15.4998 17.9522C15.9449 17.9522 16.3636 17.7789 16.6782 17.4642L17.464 16.6784C18.1138 16.0287 18.1138 14.9713 17.464 14.3216L16.842 13.6996C17.0964 13.2296 17.3009 12.7353 17.4533 12.2224H18.3333C19.2524 12.2224 20 11.4749 20 10.5558V9.44467C20 8.52533 19.2524 7.77778 18.3333 7.77778ZM18.8889 10.5556C18.8889 10.8618 18.6398 11.1111 18.3333 11.1111H17.0267C16.7691 11.1111 16.5451 11.2882 16.486 11.5389C16.322 12.2333 16.0489 12.8927 15.6749 13.4984C15.5396 13.7176 15.5724 14.0011 15.7547 14.1833L16.6782 15.1069C16.8949 15.3236 16.8949 15.676 16.6782 15.8924L15.8924 16.6782C15.6824 16.888 15.3167 16.8878 15.1067 16.6782L14.1831 15.7547C14.0011 15.5727 13.7176 15.5396 13.4982 15.6749C12.8931 16.0489 12.234 16.3218 11.5389 16.486C11.2882 16.5453 11.1111 16.7691 11.1111 17.0269V18.3333C11.1111 18.6396 10.862 18.8889 10.5556 18.8889H9.44444C9.138 18.8889 8.88889 18.6396 8.88889 18.3333V17.0269C8.88889 16.7693 8.71178 16.5453 8.46111 16.4862C7.766 16.322 7.10667 16.0491 6.50178 15.6751C6.41156 15.6193 6.31044 15.592 6.21 15.592C6.06644 15.592 5.92422 15.6476 5.81689 15.7547L4.89333 16.6782C4.68333 16.888 4.31756 16.8882 4.10756 16.6782L3.32178 15.8927C3.10511 15.676 3.10511 15.3236 3.32178 15.1069L4.24533 14.1833C4.42756 14.0013 4.46067 13.7178 4.32511 13.4984C3.95089 12.8927 3.678 12.2336 3.514 11.5389C3.45489 11.2882 3.23089 11.1111 2.97333 11.1111H1.66667C1.36022 11.1111 1.11111 10.8618 1.11111 10.5556V9.44444C1.11111 9.13822 1.36022 8.88889 1.66667 8.88889H2.97333C3.23089 8.88889 3.45467 8.71178 3.514 8.46111C3.67822 7.76644 3.95111 7.10711 4.32511 6.50156C4.46044 6.28244 4.42756 5.99889 4.24533 5.81667L3.32178 4.89311C3.10533 4.67644 3.10533 4.324 3.322 4.10733L4.10756 3.32156C4.31756 3.11178 4.68333 3.112 4.89333 3.32156L5.81689 4.24511C5.99911 4.42733 6.28267 4.46044 6.50178 4.32489C7.10689 3.95089 7.766 3.678 8.46111 3.51378C8.71178 3.45467 8.88889 3.23089 8.88889 2.97311V1.66667C8.88889 1.36044 9.138 1.11111 9.44444 1.11111H10.5556C10.862 1.11111 11.1111 1.36044 11.1111 1.66667V2.97311C11.1111 3.23067 11.2882 3.45467 11.5389 3.51378C12.234 3.678 12.8933 3.95089 13.4982 4.32489C13.7173 4.46022 14.0009 4.42733 14.1831 4.24511L15.1067 3.32156C15.3167 3.11178 15.6824 3.11156 15.8924 3.32156L16.678 4.10733C16.8947 4.324 16.8947 4.67644 16.6782 4.89289L15.7547 5.81644C15.5724 5.99844 15.5393 6.282 15.6749 6.50133C16.0491 7.10689 16.3218 7.76622 16.486 8.46089C16.5453 8.71178 16.7691 8.88889 17.0267 8.88889H18.3333C18.6398 8.88889 18.8889 9.13822 18.8889 9.44444V10.5556Z" fill="#707070"/>
</svg>
