<svg width="20" height="20" viewBox="0 0 20 20" fill="none" xmlns="http://www.w3.org/2000/svg">
<path d="M10 13.8858C10.5729 13.8822 11.1355 13.734 11.6358 13.4548C12.1361 13.1757 12.5577 12.7747 12.8615 12.289C13.1654 11.8034 13.3416 11.2488 13.3739 10.6769C13.4061 10.1049 13.2933 9.53405 13.0459 9.01733L8.53188 13.5426C8.98862 13.7677 9.49084 13.885 10 13.8858Z" fill="#707070"/>
<path d="M12.3962 8.08923L13.69 6.79548L14.5337 5.95173L15.5687 4.91392C15.655 4.80609 15.6986 4.6703 15.6912 4.53241C15.6838 4.39452 15.626 4.26416 15.5287 4.16617C15.4314 4.06818 15.3015 4.0094 15.1636 4.00103C15.0258 3.99267 14.8897 4.03529 14.7812 4.12079L13.4313 5.47079C12.3327 5.06515 11.171 4.85756 10 4.85767C8.12409 4.86062 6.28655 5.38919 4.69578 6.38342C3.10501 7.37765 1.82468 8.79775 1 10.4827C1.79065 12.0774 2.98775 13.4356 4.47062 14.4202L3.62687 15.2639C3.57118 15.3158 3.5266 15.3785 3.49584 15.4481C3.46507 15.5177 3.44876 15.5929 3.44789 15.669C3.44702 15.7451 3.46161 15.8206 3.49077 15.8909C3.51994 15.9613 3.56307 16.0249 3.61756 16.0781C3.67205 16.1312 3.73677 16.1728 3.80779 16.2002C3.8788 16.2276 3.95464 16.2403 4.03072 16.2376C4.10679 16.2348 4.18152 16.2166 4.25036 16.1842C4.31921 16.1517 4.38075 16.1056 4.43125 16.0486L5.46906 15.0108L6.31281 14.167L7.60656 12.8733L12.3962 8.08923ZM5.28062 13.613C4.03683 12.8329 3.00502 11.7576 2.27688 10.4827C3.26852 8.7377 4.82228 7.38032 6.68462 6.63201C8.54696 5.88371 10.6079 5.78865 12.5312 6.36236L11.4681 7.42548C11.0114 7.20037 10.5092 7.08298 10 7.08236C9.42865 7.08679 8.86762 7.23514 8.36875 7.51368C7.86987 7.79223 7.44923 8.19199 7.14568 8.67606C6.84212 9.16012 6.66544 9.71287 6.63195 10.2833C6.59846 10.8537 6.70924 11.4233 6.95406 11.9395L5.28062 13.613Z" fill="#707070"/>
<path d="M15.535 6.53955L14.7222 7.35236C15.9643 8.13356 16.995 9.20865 17.7231 10.4827C16.9494 11.8487 15.8265 12.9844 14.4694 13.7737C13.1123 14.5629 11.5698 14.9772 9.99997 14.9742C9.1429 14.9737 8.29038 14.8496 7.46872 14.6058L6.57434 15.5002C7.67167 15.9023 8.83127 16.108 9.99997 16.1077C11.8759 16.1047 13.7134 15.5762 15.3042 14.5819C16.895 13.5877 18.1753 12.1676 19 10.4827C18.2108 8.88714 17.0158 7.52727 15.535 6.53955Z" fill="#707070"/>
</svg>
