<svg width="20" height="20" viewBox="0 0 20 20" fill="none" xmlns="http://www.w3.org/2000/svg">
<path d="M10 4.64983C8.58066 4.64983 7.22041 5.2142 6.21724 6.21727C5.21414 7.22037 4.6498 8.58065 4.6498 10C4.6498 11.4194 5.21417 12.7796 6.21724 13.7828C7.22033 14.7859 8.58061 15.3502 10 15.3502C11.4194 15.3502 12.7796 14.7859 13.7828 13.7828C14.7858 12.7797 15.3502 11.4194 15.3502 10C15.3474 8.58163 14.783 7.22236 13.7799 6.22015C12.7778 5.21705 11.4184 4.65266 10 4.64983ZM10 14.0002C8.95848 13.9871 7.96381 13.5624 7.23361 12.8199C6.50331 12.0765 6.09645 11.0753 6.10019 10.0338C6.10488 8.99231 6.52112 7.99389 7.25703 7.25711C7.99388 6.5212 8.99229 6.10496 10.0337 6.10028C11.0753 6.09653 12.0765 6.50339 12.8198 7.23369C13.5623 7.96399 13.987 8.95864 14.0001 10.0001C14.0001 11.0613 13.5782 12.0785 12.8283 12.8284C12.0783 13.5783 11.0612 14.0002 10 14.0002ZM10.7003 17.2898V19.2997C10.7003 19.6859 10.3862 20 10 20C9.61375 20 9.2997 19.6859 9.2997 19.2997V17.2401C9.2997 16.8529 9.61375 16.5398 10 16.5398C10.3862 16.5398 10.7003 16.8529 10.7003 17.2401V17.2898ZM5.38015 14.6198C5.65482 14.8964 5.65482 15.3426 5.38015 15.6201L3.92051 17.0695C3.78833 17.2045 3.60833 17.2795 3.41991 17.2795C3.23523 17.2795 3.05805 17.2035 2.93055 17.0695C2.79367 16.9392 2.71586 16.7592 2.71586 16.5698C2.71586 16.3805 2.79367 16.2004 2.93055 16.0701L4.39018 14.6002C4.67142 14.3377 5.11015 14.3461 5.38015 14.6198ZM2.75991 10.7003H0.700297C0.314054 10.7003 0 10.3862 0 9.99999C0 9.61374 0.314054 9.29969 0.700297 9.29969H2.75991C3.14709 9.29969 3.46021 9.61374 3.46021 9.99999C3.46021 10.3862 3.14709 10.7003 2.75991 10.7003ZM2.92959 3.9205H2.93053C2.65399 3.64395 2.65399 3.19677 2.93053 2.92021C3.20614 2.64366 3.65425 2.64366 3.92988 2.92021L5.38015 4.39016C5.65483 4.6667 5.65483 5.11295 5.38015 5.39045C5.24422 5.51701 5.0661 5.58826 4.88049 5.59013C4.69675 5.58919 4.52144 5.51701 4.39019 5.39045L2.92959 3.9205ZM9.29971 2.75991V0.700298C9.29971 0.314054 9.61376 0 10 0C10.3862 0 10.7003 0.314054 10.7003 0.700298V2.75991C10.7003 3.14709 10.3862 3.46021 10 3.46021C9.61376 3.46021 9.29971 3.14709 9.29971 2.75991ZM14.6199 5.38015C14.3452 5.10361 14.3452 4.65737 14.6199 4.37987L16.0795 2.92023C16.356 2.64369 16.8032 2.64369 17.0798 2.92023C17.3563 3.19677 17.3563 3.64395 17.0798 3.92052L15.6098 5.38015C15.4786 5.50765 15.3033 5.5789 15.1195 5.57984C14.9339 5.5789 14.7558 5.50765 14.6199 5.38015ZM20 10C20 10.3863 19.6859 10.7003 19.2997 10.7003H17.2401C16.8529 10.7003 16.5398 10.3863 16.5398 10C16.5398 9.61377 16.8529 9.29971 17.2401 9.29971H19.2997C19.4853 9.29971 19.6634 9.37377 19.7947 9.50502C19.9259 9.63627 20 9.8144 20 10ZM17.0704 16.0795H17.0695C17.3441 16.357 17.3441 16.8032 17.0695 17.0798C16.9429 17.2148 16.7648 17.2907 16.5801 17.2898C16.3917 17.2898 16.2117 17.2139 16.0795 17.0798L14.6199 15.6202C14.3433 15.3436 14.3433 14.8964 14.6199 14.6199C14.8964 14.3433 15.3436 14.3433 15.6202 14.6199L17.0704 16.0795Z" fill="#707070"/>
</svg>
