<svg width="20" height="20" viewBox="0 0 20 20" fill="none" xmlns="http://www.w3.org/2000/svg">
<path d="M17.7447 0H2.27604C1.01158 0 0 1.03265 0 2.27604V17.7236C0 18.9881 1.03265 19.9997 2.27604 19.9997H17.7236C18.9881 19.9997 19.9997 18.967 19.9997 17.7236V2.27604C20.0208 1.03265 18.9881 0 17.7447 0ZM2.27604 1.0748H17.7236C18.398 1.0748 18.946 1.62273 18.946 2.29712V4.74176H1.0748V2.27604C1.0748 1.62274 1.62274 1.0748 2.27604 1.0748ZM14.2042 5.81656V9.48352H10.5372V5.81656H14.2042ZM9.48352 9.48352H5.81656V5.81656H9.48352V9.48352ZM4.74176 9.48352H1.0748V5.81656H4.74176V9.48352ZM4.74176 10.5372V14.2042H1.0748V10.5372H4.74176ZM5.81656 10.5372H9.48352V14.2042H5.81656V10.5372ZM9.48352 15.279V18.946H5.81656V15.279H9.48352ZM10.5372 15.279H14.2042V18.946H10.5372V15.279ZM10.5372 14.2042V10.5372H14.2042V14.2042H10.5372ZM15.279 10.5372H18.946V14.2042H15.279V10.5372ZM15.279 9.48352V5.81656H18.946V9.48352H15.279ZM1.0748 17.7447V15.279H4.74176V18.946H2.27604C1.62274 18.946 1.0748 18.398 1.0748 17.7447ZM17.7447 18.946H15.279V15.279H18.946V17.7236C18.946 18.398 18.398 18.946 17.7447 18.946Z" fill="#7435A8"/>
</svg>
