<svg width="186" height="50" viewBox="0 0 186 50" fill="none"
  xmlns="http://www.w3.org/2000/svg">
  <path id="pathLogo" d="M70.48 40.08C69.0667 40.08 68.36 39.6933 68.36 38.92V16.48H61.56C60.84 16.48 60.48 15.9067 60.48 14.76V13.72C60.48 12.5733 60.84 12 61.56 12H80.4C81.12 12 81.48 12.5733 81.48 13.72V14.76C81.48 15.9067 81.12 16.48 80.4 16.48H73.64V38.92C73.64 39.6933 72.9333 40.08 71.52 40.08H70.48ZM87.1406 40.28C85.0606 40.28 83.5006 39.7467 82.4606 38.68C81.4206 37.5867 80.9006 36.16 80.9006 34.4C80.9006 33.28 81.1273 32.2667 81.5806 31.36C82.034 30.4533 82.7273 29.68 83.6606 29.04C84.6206 28.3733 85.874 27.88 87.4206 27.56C88.9673 27.2133 90.834 27.0267 93.0206 27V25.48C93.0206 24.68 92.7406 24.04 92.1806 23.56C91.6473 23.08 90.7406 22.84 89.4606 22.84C88.4206 22.84 87.514 22.96 86.7406 23.2C85.9673 23.44 85.3406 23.68 84.8606 23.92C84.4073 24.16 84.1006 24.28 83.9406 24.28C83.7006 24.28 83.434 24.0933 83.1406 23.72C82.8473 23.3467 82.594 22.9333 82.3806 22.48C82.194 22.0267 82.1006 21.6933 82.1006 21.48C82.1006 21.0533 82.434 20.64 83.1006 20.24C83.7673 19.8133 84.674 19.4667 85.8206 19.2C86.994 18.9333 88.2873 18.8 89.7006 18.8C91.6473 18.8 93.234 19.08 94.4606 19.64C95.6873 20.1733 96.594 20.9333 97.1806 21.92C97.7673 22.88 98.0606 24.0133 98.0606 25.32V33.36C98.0606 34.64 98.1006 35.6533 98.1806 36.4C98.2606 37.12 98.3406 37.6667 98.4206 38.04C98.5006 38.3867 98.5406 38.6667 98.5406 38.88C98.5406 39.0933 98.394 39.28 98.1006 39.44C97.8073 39.5733 97.4473 39.6933 97.0206 39.8C96.594 39.88 96.1806 39.9467 95.7806 40C95.3806 40.0267 95.074 40.04 94.8606 40.04C94.4606 40.04 94.1673 39.8933 93.9806 39.6C93.794 39.28 93.6606 38.9067 93.5806 38.48C93.5006 38.0267 93.4206 37.6267 93.3406 37.28C93.1006 37.5733 92.714 37.96 92.1806 38.44C91.6473 38.92 90.9673 39.3467 90.1406 39.72C89.314 40.0933 88.314 40.28 87.1406 40.28ZM88.5006 36.24C89.514 36.24 90.394 35.9867 91.1406 35.48C91.914 34.9467 92.5406 34.32 93.0206 33.6V30.56C92.034 30.56 91.114 30.6133 90.2606 30.72C89.434 30.8267 88.6873 31 88.0206 31.24C87.3806 31.48 86.8873 31.8267 86.5406 32.28C86.194 32.7067 86.0206 33.2533 86.0206 33.92C86.0206 34.64 86.2206 35.2133 86.6206 35.64C87.0473 36.04 87.674 36.24 88.5006 36.24ZM108.738 40.32C107.698 40.32 106.671 40.2 105.658 39.96C104.644 39.72 103.818 39.4 103.178 39C102.538 38.6 102.218 38.16 102.218 37.68C102.218 37.3867 102.324 37.04 102.538 36.64C102.751 36.2133 103.004 35.8267 103.298 35.48C103.591 35.1333 103.858 34.96 104.098 34.96C104.258 34.96 104.524 35.0667 104.898 35.28C105.271 35.4933 105.738 35.72 106.298 35.96C106.884 36.1733 107.564 36.28 108.338 36.28C110.311 36.28 111.298 35.56 111.298 34.12C111.298 33.3733 110.964 32.8133 110.298 32.44C109.631 32.04 108.804 31.64 107.818 31.24C107.071 30.9467 106.298 30.5867 105.498 30.16C104.698 29.7333 104.031 29.12 103.498 28.32C102.964 27.52 102.698 26.44 102.698 25.08C102.698 23.7733 102.991 22.6533 103.577 21.72C104.164 20.7867 104.991 20.0667 106.058 19.56C107.124 19.0267 108.351 18.76 109.738 18.76C110.564 18.76 111.418 18.84 112.298 19C113.204 19.16 113.964 19.4 114.578 19.72C115.191 20.04 115.498 20.4267 115.498 20.88C115.498 21.1467 115.404 21.5067 115.218 21.96C115.058 22.4133 114.858 22.8267 114.618 23.2C114.404 23.5467 114.178 23.72 113.938 23.72C113.751 23.72 113.364 23.5733 112.778 23.28C112.191 22.96 111.378 22.8 110.338 22.8C109.564 22.8 108.938 22.96 108.458 23.28C107.978 23.5733 107.738 24.04 107.738 24.68C107.738 25.3733 108.004 25.9067 108.538 26.28C109.098 26.6267 109.911 26.9867 110.978 27.36C111.831 27.6533 112.658 28.04 113.458 28.52C114.284 28.9733 114.964 29.6133 115.498 30.44C116.058 31.2667 116.338 32.36 116.338 33.72C116.338 35 116.018 36.1467 115.378 37.16C114.764 38.1467 113.898 38.92 112.778 39.48C111.658 40.04 110.311 40.32 108.738 40.32ZM122.621 40.08C121.208 40.08 120.501 39.6933 120.501 38.92V11C120.501 10.2533 121.208 9.88 122.621 9.88H123.381C124.821 9.88 125.541 10.2533 125.541 11V27.56L125.701 27.6L131.501 19.68C131.714 19.3867 132.021 19.2 132.421 19.12C132.821 19.04 133.288 19 133.821 19H134.861C136.141 19 136.781 19.1867 136.781 19.56C136.781 19.8 136.661 20.0667 136.421 20.36L129.061 30.2L129.101 26.96L137.341 38.72C137.554 39.04 137.661 39.2933 137.661 39.48C137.661 39.88 136.954 40.08 135.541 40.08H134.421C133.888 40.08 133.408 40.04 132.981 39.96C132.581 39.8533 132.288 39.6667 132.101 39.4L125.701 30.12H125.541V38.92C125.541 39.6933 124.821 40.08 123.381 40.08H122.621ZM143.24 40.08C141.827 40.08 141.12 39.6933 141.12 38.92V20.16C141.12 19.3867 141.827 19 143.24 19H144.04C145.454 19 146.16 19.3867 146.16 20.16V38.92C146.16 39.6933 145.454 40.08 144.04 40.08H143.24ZM143.64 16.76C142.734 16.76 142.08 16.6667 141.68 16.48C141.28 16.2667 141.08 15.9733 141.08 15.6V12.72C141.08 12.3467 141.28 12.0667 141.68 11.88C142.08 11.6933 142.734 11.6 143.64 11.6C144.547 11.6 145.2 11.6933 145.6 11.88C146 12.0667 146.2 12.3467 146.2 12.72V15.6C146.2 15.9733 146 16.2667 145.6 16.48C145.2 16.6667 144.547 16.76 143.64 16.76ZM160.986 40.28C157.466 40.28 154.88 39.3467 153.226 37.48C151.573 35.6133 150.746 33.0133 150.746 29.68C150.746 27.12 151.133 25.04 151.906 23.44C152.706 21.84 153.826 20.6667 155.266 19.92C156.706 19.1733 158.4 18.8 160.346 18.8C162.373 18.8 164 19.2533 165.226 20.16C166.48 21.04 167.4 22.2667 167.986 23.84C168.573 25.3867 168.866 27.16 168.866 29.16C168.866 29.3467 168.746 29.6133 168.506 29.96C168.293 30.3067 168.04 30.6133 167.746 30.88C167.453 31.1467 167.226 31.28 167.066 31.28H156.026C156.16 33.0667 156.666 34.3467 157.546 35.12C158.426 35.8667 159.626 36.24 161.146 36.24C162.106 36.24 162.933 36.12 163.626 35.88C164.346 35.64 164.933 35.4133 165.386 35.2C165.866 34.96 166.186 34.84 166.346 34.84C166.586 34.84 166.853 35.0267 167.146 35.4C167.44 35.7467 167.68 36.1333 167.866 36.56C168.08 36.96 168.186 37.28 168.186 37.52C168.186 37.9467 167.946 38.3333 167.466 38.68C167.013 39 166.413 39.2933 165.666 39.56C164.92 39.8 164.133 39.9733 163.306 40.08C162.48 40.2133 161.706 40.28 160.986 40.28ZM156.026 27.68H163.866C163.866 26.1867 163.573 25.0133 162.986 24.16C162.426 23.28 161.533 22.84 160.306 22.84C159.16 22.84 158.2 23.2133 157.426 23.96C156.68 24.7067 156.213 25.9467 156.026 27.68ZM175.469 40.08C174.055 40.08 173.349 39.6933 173.349 38.92V25.8C173.349 24.5467 173.309 23.56 173.229 22.84C173.149 22.12 173.069 21.5733 172.989 21.2C172.909 20.8267 172.869 20.5467 172.869 20.36C172.869 20.1467 173.015 19.9733 173.309 19.84C173.602 19.68 173.962 19.56 174.389 19.48C174.815 19.3733 175.229 19.3067 175.629 19.28C176.029 19.2267 176.335 19.2 176.549 19.2C176.922 19.2 177.202 19.3467 177.389 19.64C177.602 19.9333 177.749 20.28 177.829 20.68C177.909 21.08 177.989 21.4533 178.069 21.8C178.575 20.9733 179.175 20.2667 179.869 19.68C180.589 19.0933 181.469 18.8 182.509 18.8C183.442 18.8 184.055 18.9733 184.349 19.32C184.669 19.6667 184.829 20.1467 184.829 20.76C184.829 21 184.775 21.36 184.669 21.84C184.589 22.2933 184.469 22.72 184.309 23.12C184.149 23.4933 183.949 23.68 183.709 23.68C183.442 23.68 183.175 23.6267 182.909 23.52C182.642 23.3867 182.255 23.32 181.749 23.32C181.162 23.32 180.629 23.4667 180.149 23.76C179.669 24.0533 179.269 24.3733 178.949 24.72C178.655 25.04 178.469 25.2933 178.389 25.48V38.92C178.389 39.6933 177.669 40.08 176.229 40.08H175.469Z" fill="#fff"/>
  <mask id="mask0_27_2" style="mask-type:alpha" maskUnits="userSpaceOnUse" x="0" y="0" width="50" height="50">
    <path d="M25 40.625H0V50H25V40.625Z" fill="#7B3DBA"/>
    <path d="M25 27.5H0V36.875H25V27.5Z" fill="#7B3DBA"/>
    <path d="M25 13.75H0V23.125H25V13.75Z" fill="#7B3DBA"/>
    <path d="M25 0H0V9.375H25V0Z" fill="#7B3DBA"/>
    <path d="M50 0H28.125V50H50V0Z" fill="#7B3DBA"/>
  </mask>
  <g mask="url(#mask0_27_2)">
    <path d="M50 0H0V50H50V0Z" fill="url(#paint0_linear_27_2)"/>
  </g>
  <defs>
    <linearGradient id="paint0_linear_27_2" x1="0" y1="50" x2="50" y2="0" gradientUnits="userSpaceOnUse">
      <stop stop-color="#7435A8"/>
      <stop offset="1" stop-color="#A64388"/>
    </linearGradient>
  </defs>
</svg>
